<?xml version="1.0" encoding="UTF-8" standalone="no"?>
<svg
   xmlns:dc="http://purl.org/dc/elements/1.1/"
   xmlns:cc="http://creativecommons.org/ns#"
   xmlns:rdf="http://www.w3.org/1999/02/22-rdf-syntax-ns#"
   xmlns:svg="http://www.w3.org/2000/svg"
   xmlns="http://www.w3.org/2000/svg"
   xmlns:sodipodi="http://sodipodi.sourceforge.net/DTD/sodipodi-0.dtd"
   xmlns:inkscape="http://www.inkscape.org/namespaces/inkscape"
   height="82"
   width="450"
   inkscape:version="1.0 (4035a4f, 2020-05-01)"
   sodipodi:docname="logo_tm.svg"
   viewBox="0 0 450 82"
   version="1.1"
   id="svg1130">
  <sodipodi:namedview
     inkscape:current-layer="svg1130"
     inkscape:window-maximized="1"
     inkscape:window-y="23"
     inkscape:window-x="0"
     inkscape:cy="46.636455"
     inkscape:cx="300.18583"
     inkscape:zoom="3.0282543"
     showgrid="false"
     id="namedview1191"
     inkscape:window-height="964"
     inkscape:window-width="1680"
     inkscape:pageshadow="2"
     inkscape:pageopacity="0"
     guidetolerance="10"
     gridtolerance="10"
     objecttolerance="10"
     borderopacity="1"
     bordercolor="#666666"
     pagecolor="#ffffff" />
  <metadata
     id="metadata1136">
    <rdf:RDF>
      <cc:Work
         rdf:about="">
        <dc:format>image/svg+xml</dc:format>
        <dc:type
           rdf:resource="http://purl.org/dc/dcmitype/StillImage" />
        <dc:title></dc:title>
      </cc:Work>
    </rdf:RDF>
  </metadata>
  <defs
     id="defs1134" />
  <g
     display="inline"
     id="g1128"
     transform="scale(0.99059309,1)">
    <title
       id="title1095">Layer 1</title>
    <g
       id="svg_1">
      <g
         id="g1115">
        <path
           d="m 0,24 h 32.200001 v 3.299999 H 4.5 V 38.900001 H 30.799999 V 42.2 H 4.5 V 58.400001 H 0 V 23.999999 Z"
           fill="#143c6b"
           id="path1097" />
        <path
           d="m 38.10001,24 h 4.5 v 34.39999 h -4.5 z"
           fill="#143c6b"
           id="path1099" />
        <path
           d="m 52.200001,24 h 23.399998 c 7.300003,0 14,2.1 14,9.299999 0,3.700001 -2.799995,7.299999 -8.400002,8.299999 V 41.7 c 6.100006,0.799999 7.300003,3.899998 7.600006,9.5 0.1,2.200001 0.5,6.399998 1.5,7.099998 H 85.5 c -0.800003,-0.700001 -1.099998,-3.299999 -1.099998,-7 C 84.300004,45.2 81.400002,43.2 74,43.2 H 56.700001 v 15.099998 h -4.5 v -34.299999 0 0 0 0 0 0 0 0 z m 4.5,16 H 75.5 c 4.900002,0 9.300003,-1.400002 9.300003,-6.700001 0,-5.099998 -4.800003,-6 -8.800003,-6 H 56.799999 V 40 Z"
           fill="#143c6b"
           id="path1101" />
        <path
           d="m 126.2,33.799999 c -0.6,-5.9 -6.6,-7.4 -13.5,-7.4 -6.9,0 -12.2,2.200001 -12.2,6.1 0,4.5 5.2,5.5 15.7,6.900002 7.8,1.099998 15.6,2.5 15.6,9.099998 C 131.8,56.900001 122.2,59.2 113.9,59.2 103,59.2 95.099998,56.2 94.400001,46.999999 h 4.5 c 0.799995,7.200001 6.799999,9 14.999999,9 6.4,0 13.1,-1.400002 13.1,-6.799999 0,-5.200001 -7.8,-5.900002 -15.6,-6.900002 C 101.2,40.999999 95.699996,38.7 95.699996,33.2 c 0,-7.5 8.700004,-10 17.000004,-10 8.8,0 17.6,2.5 17.9,10.700001 h -4.4 v -0.100002 0 0 0 0 0 0 0 z"
           fill="#143c6b"
           id="path1103" />
        <path
           d="M 150.00001,27.29999 H 133.2 V 24 h 38.1 v 3.29999 h -16.79998 v 31.100012 h -4.5 V 27.29999 Z"
           fill="#143c6b"
           id="path1105" />
        <path
           d="M 270.10001,24 H 293.5 c 7.29999,0 14,2.1 14,9.299999 0,3.700001 -2.79999,7.299999 -8.39999,8.299999 V 41.7 c 6.1,0.799999 7.29998,3.899998 7.6,9.5 0.1,2.200001 0.5,6.399998 1.5,7.099998 h -4.90002 c -0.79999,-0.700001 -1.09998,-3.299999 -1.09998,-7 C 302.10001,45.2 299.20001,43.2 291.79999,43.2 H 274.5 V 58.299998 H 270 V 23.999999 h 0.10001 z M 274.5,40 h 18.79999 c 4.90002,0 9.30002,-1.400002 9.30002,-6.700001 0,-5.099998 -4.80002,-6 -8.80002,-6 H 274.60001 V 40 Z"
           fill="#143c6b"
           id="path1107" />
        <path
           d="m 345.30002,47.89999 h -22.60001 l -5.79999,10.39999 h -4.80001 l 19.49997,-34.39999 h 5.20001 l 19.50003,34.39999 h -5.20001 z M 334.00003,27.6 324.40002,44.700008 h 19 z"
           fill="#143c6b"
           id="path1109" />
        <path
           d="M 368.00003,27.29999 H 351.20001 V 24 h 38.10001 v 3.29999 H 372.5 v 31.100012 h -4.49997 z"
           fill="#143c6b"
           id="path1111" />
        <path
           d="m 394.89999,24 h 34.20002 v 3.299999 h -29.80002 v 11.600002 h 28.6 V 42.2 h -28.6 V 55.099998 H 429.5 v 3.300003 h -34.60001 v -34.400002 0 0 z"
           fill="#143c6b"
           id="path1113" />
      </g>
      <g
         id="g1125">
        <rect
           height="81.599998"
           width="81.599998"
           fill="#143c6b"
           y="0"
           x="178.8"
           id="rect1117" />
        <g
           id="g1123">
          <path
             d="m 199.2,27.29999 h -14 v -3.19998 c 2.30001,-0.20001 3.1,-0.30002 4.89999,-0.60001 1.80002,-0.29999 3.40002,-0.70001 4.80002,-1.39999 C 196.3,21.4 197.40001,20.4 198.3,19 c 0.9,-1.29999 1.60001,-3.10001 2,-5.39999 h 4.29999 V 68 H 199.3 V 27.29999 Z"
             fill="#ffffff"
             id="path1119" />
          <path
             d="m 207.89999,38.900002 h 17.70002 C 227.7,38.900002 229.7,38.700001 231.5,38.3 c 1.8,-0.399998 3.39999,-1 4.7,-1.899998 1.3,-0.900002 2.40001,-2 3.19999,-3.400002 0.80001,-1.4 1.20002,-3 1.20002,-4.9 0,-2 -0.40001,-3.700001 -1.20002,-5 C 238.60001,21.799999 237.5,20.799999 236.10001,20 234.7,19.200001 233.2,18.700001 231.39999,18.4 c -1.79998,-0.299999 -3.59999,-0.5 -5.5,-0.5 h -18 V 13.5 H 225.8 c 6.59999,0 11.7,1.1 15.2,3.4 3.5,2.200001 5.3,5.9 5.3,10.9 0,3.400002 -0.8,6.100002 -2.3,8.200001 -1.5,2 -4,3.700001 -7.5,5.099998 1.8,0.600002 3.2,1.400002 4.2,2.400002 1,1.099998 1.8,2.299999 2.3,3.599998 0.5,1.400002 0.8,2.800003 1,4.300003 0.10001,1.5 0.2,3 0.3,4.399998 0.1,2.100002 0.2,3.799999 0.30001,5.100002 0.1,1.399998 0.29998,2.5 0.5,3.299995 0.19999,0.900002 0.5,1.5 0.69999,2 0.30001,0.5 0.7,1.300003 1,1.600006 v 0 h -6.5 C 239.7,66.900001 239.3,65.599998 239,64 c -0.3,-1.599998 -0.39999,-3.299999 -0.60001,-5.099998 -0.1,-1.800003 -0.29998,-3.5 -0.29998,-5.100002 -0.10001,-1.700001 -0.20002,-3 -0.5,-4.099998 C 237.3,48.200002 236.7,47.1 236,46.200002 c -0.8,-0.900002 -1.7,-1.5 -2.7,-2 -1.1,-0.5 -2.19999,-0.799999 -3.5,-0.900002 -1.3,-0.200001 -2.69999,-0.200001 -4,-0.200001 h -17.90001 v -4.199997 0 0 0 0 0 0 0 0 z"
             fill="#92c039"
             id="path1121" />
        </g>
      </g>
    </g>
  </g>
  <text
     transform="scale(0.90514719,1.1047927)"
     xml:space="preserve"
     style="font-size:12.2624px;line-height:1.25;font-family:AppleMyungjo;-inkscape-font-specification:AppleMyungjo;fill:#143c6b;fill-opacity:1;stroke-width:1.47474"
     x="476.03931"
     y="29.69874"
     id="text1140"><tspan
       id="tspan1138"
       x="476.03931"
       y="29.69874"
       style="font-style:normal;font-variant:normal;font-weight:normal;font-stretch:normal;font-size:11.1476px;font-family:Arial;-inkscape-font-specification:'Arial, Normal';font-variant-ligatures:normal;font-variant-caps:normal;font-variant-numeric:normal;font-variant-east-asian:normal;stroke-width:1.47474">TM</tspan></text>
</svg>
